<svg width="32" height="32" viewBox="0 0 32 32" fill="none" xmlns="http://www.w3.org/2000/svg">
<path fill-rule="evenodd" clip-rule="evenodd" d="M16.0001 2.66663C8.64008 2.66663 2.66675 8.63996 2.66675 16C2.66675 23.36 8.64008 29.3333 16.0001 29.3333C23.3601 29.3333 29.3334 23.36 29.3334 16C29.3334 8.63996 23.3601 2.66663 16.0001 2.66663ZM23.0801 20.4133C22.6934 20.6266 22.3734 20.72 22.1067 20.7866C21.8801 20.84 21.6934 20.8933 21.5334 21C21.3601 21.1066 21.3467 21.2799 21.3201 21.4399C21.2934 21.5866 21.2801 21.7066 21.1734 21.7866C21.0534 21.8666 20.8268 21.88 20.5201 21.8933C20.1201 21.92 19.6134 21.9333 19.0001 22.12C18.7067 22.2266 18.4401 22.3866 18.1734 22.5466C17.6401 22.88 17.0401 23.24 15.9867 23.24C14.9467 23.24 14.3467 22.88 13.8134 22.5466C13.5467 22.3733 13.2801 22.2133 12.9734 22.1066C12.3734 21.9199 11.8534 21.8933 11.4534 21.88C11.1467 21.8666 10.9334 21.8533 10.8001 21.7733C10.6934 21.7066 10.6801 21.5733 10.6534 21.4266C10.6267 21.2666 10.6134 21.0933 10.4401 20.9866C10.2801 20.8799 10.0801 20.8266 9.86674 20.76C9.60007 20.6933 9.2801 20.6133 8.89343 20.3999C8.4401 20.1466 8.70677 20 8.85343 19.92C11.4268 18.68 11.8268 16.7599 11.8401 16.6133C11.8401 16.5999 11.8401 16.6 11.8401 16.5866C11.8668 16.4266 11.8801 16.2933 11.6934 16.12C11.5734 16 11.1601 15.7333 10.8267 15.52C10.6801 15.4133 10.5468 15.3333 10.4668 15.2933C10.0934 15.0266 9.93343 14.7733 10.0534 14.4399C10.1334 14.2133 10.3468 14.1333 10.5601 14.1333C10.6268 14.1333 10.7068 14.1466 10.7601 14.16C11.0001 14.2133 11.2401 14.3066 11.4534 14.3866C11.6001 14.4533 11.7201 14.4933 11.8134 14.52C11.8401 14.5333 11.8801 14.5333 11.8934 14.5333C12.0268 14.5333 12.0668 14.4666 12.0534 14.3333C12.0534 14.2933 12.0534 14.2533 12.0401 14.2133C12.0134 13.7466 11.9734 12.9333 12.0267 12.1866C12.1334 11.0666 12.4934 10.4933 12.9201 10.0133C13.1334 9.77331 14.1068 8.74662 15.9601 8.74662C17.8267 8.74662 18.7867 9.77329 19.0001 9.99996C19.4267 10.4933 19.7868 11.0533 19.8934 12.1866C19.9601 12.9733 19.9067 13.8133 19.8667 14.2799V14.3199C19.8534 14.4666 19.8934 14.52 20.0267 14.52C20.0534 14.52 20.0801 14.52 20.1067 14.5066C20.2001 14.48 20.3201 14.44 20.4668 14.3866C20.6668 14.3066 20.9067 14.2133 21.1601 14.16C21.2267 14.1333 21.2934 14.1333 21.3601 14.1333C21.5867 14.1333 21.7867 14.2266 21.8667 14.4533C21.9867 14.7733 21.8267 15.0266 21.4534 15.2933C21.3867 15.3466 21.2534 15.44 21.0934 15.52C20.7734 15.7333 20.3468 16 20.2268 16.12C20.0401 16.2933 20.0534 16.4266 20.0801 16.5866C20.0801 16.6 20.0801 16.6133 20.0801 16.6133C20.1067 16.7599 20.5067 18.68 23.0667 19.92C23.2667 20 23.5334 20.16 23.0801 20.4133Z" fill="#323232"/>
</svg>
